<?xml version="1.0" standalone="no"?>
<!DOCTYPE svg PUBLIC "-//W3C//DTD SVG 20010904//EN"
 "http://www.w3.org/TR/2001/REC-SVG-20010904/DTD/svg10.dtd">
<svg version="1.0" xmlns="http://www.w3.org/2000/svg"
 width="150pt" height="100" viewBox="0 0 1353.000000 610.000000"
 preserveAspectRatio="xMidYMid meet">

<g transform="translate(0.000000,610.000000) scale(0.100000,-0.100000)"
fill="#067EEC" stroke="none">
<path d="M7925 6093 c-36 -10 -68 -37 -81 -70 -20 -48 -20 -539 0 -588 13 -30
244 -187 1874 -1272 l1860 -1238 1 -1330 c1 -1245 2 -1332 19 -1365 22 -44 80
-75 125 -66 54 11 1347 739 1371 772 21 28 21 33 24 1006 l2 978 159 0 c148 0
160 1 192 23 60 41 72 145 22 189 -33 28 -5493 2959 -5521 2963 -15 2 -36 1
-47 -2z"/>
<path d="M790 3746 c-202 -26 -589 -110 -652 -142 -60 -31 -78 -129 -32 -183
39 -47 98 -51 233 -14 l24 6 -7 -943 c-4 -520 -9 -946 -11 -949 -3 -2 -40 30
-83 72 -43 41 -90 79 -105 82 -66 17 -148 -45 -149 -112 -1 -58 23 -94 113
-173 177 -156 371 -250 609 -295 112 -22 339 -25 446 -7 252 42 477 154 630
313 87 92 124 145 180 263 80 169 113 389 80 529 -60 253 -285 434 -638 512
-43 9 -78 18 -78 20 0 2 31 26 70 55 274 203 376 479 265 714 -56 119 -156
191 -330 237 -102 27 -404 35 -565 15z m384 -271 c74 -20 118 -46 154 -93 24
-31 27 -44 27 -111 0 -65 -4 -84 -30 -131 -38 -70 -178 -210 -276 -277 -42
-29 -115 -71 -163 -94 -96 -47 -116 -70 -116 -137 0 -42 25 -83 62 -103 12 -6
87 -15 167 -20 159 -9 310 -37 411 -76 291 -114 372 -371 215 -688 -82 -166
-194 -274 -360 -350 -137 -63 -213 -80 -360 -80 -71 0 -143 4 -159 8 l-29 8 7
1072 c4 590 9 1074 11 1075 2 2 37 8 77 12 101 12 291 4 362 -15z"/>
<path d="M3440 3468 c-50 -14 -88 -44 -110 -89 -27 -53 -75 -434 -122 -969
-17 -198 -17 -900 0 -998 33 -193 103 -290 215 -300 97 -8 144 33 188 163 17
48 52 131 79 185 146 292 270 435 310 361 14 -28 12 -163 -5 -316 -30 -263
-16 -464 41 -576 44 -88 138 -149 229 -149 109 0 185 74 185 181 0 46 -15 79
-69 150 -64 85 -65 93 -66 499 0 350 -1 367 -21 417 -32 77 -77 128 -141 160
-170 83 -332 -27 -528 -357 l-55 -94 0 180 c0 318 35 830 80 1179 25 188 25
236 1 283 -24 47 -50 70 -98 88 -44 15 -65 16 -113 2z"/>
<path d="M7934 2839 c-41 -12 -91 -69 -99 -111 -3 -18 -5 -214 -3 -435 3 -388
4 -403 24 -429 11 -15 33 -37 48 -48 26 -20 41 -21 429 -24 401 -3 402 -3 447
20 26 14 53 37 65 58 19 34 20 52 20 450 0 399 -1 416 -20 450 -12 19 -36 43
-55 55 -33 19 -52 20 -430 22 -222 1 -409 -2 -426 -8z"/>
<path d="M9050 2822 c-22 -12 -44 -35 -58 -63 l-23 -44 3 -416 3 -416 28 -36
c17 -23 42 -40 65 -47 25 -8 170 -10 442 -8 387 3 406 4 432 23 14 11 35 34
45 50 17 28 18 60 18 452 0 412 0 422 -21 450 -11 15 -36 38 -54 51 -33 22
-34 22 -439 22 -374 0 -409 -1 -441 -18z"/>
<path d="M4704 2769 c-37 -11 -92 -64 -101 -97 -12 -50 3 -112 38 -148 54 -56
123 -65 192 -25 63 36 88 131 53 199 -29 57 -117 91 -182 71z"/>
<path d="M6477 2500 c-112 -13 -259 -55 -339 -97 -38 -20 -95 -62 -127 -93
-177 -174 -143 -369 83 -480 74 -36 152 -52 401 -80 211 -23 247 -30 253 -48
5 -17 -101 -126 -174 -178 -34 -24 -91 -58 -128 -75 -61 -28 -73 -31 -129 -24
-121 13 -138 10 -174 -29 -60 -66 -38 -158 46 -194 24 -10 81 -17 166 -20 164
-6 253 14 405 90 89 44 119 66 197 143 75 74 99 105 130 170 32 67 38 93 42
158 4 103 -14 152 -80 211 -101 91 -204 107 -534 86 -111 -7 -214 -10 -228 -6
-40 10 -34 38 20 85 139 123 331 173 463 121 62 -24 93 -25 131 -3 66 39 77
144 20 195 -64 57 -265 88 -444 68z"/>
<path d="M2550 2337 c-289 -119 -469 -484 -390 -791 29 -114 73 -190 160 -277
89 -89 154 -124 260 -140 190 -29 336 45 420 211 53 104 72 197 72 345 0 252
-87 516 -197 598 -108 80 -217 98 -325 54z m71 -347 c53 -56 98 -239 85 -349
-13 -109 -86 -186 -177 -186 -75 0 -117 53 -139 174 -26 146 43 347 134 387
39 16 64 10 97 -26z"/>
<path d="M4613 2341 c-103 -47 -153 -214 -174 -588 -17 -300 7 -511 67 -582
76 -90 242 -74 295 30 24 49 26 89 10 204 -21 140 3 491 46 679 20 92 14 155
-22 202 -52 68 -142 91 -222 55z"/>
<path d="M5330 2337 c-289 -119 -469 -484 -390 -791 29 -114 73 -190 160 -277
89 -89 154 -124 260 -140 190 -29 336 45 420 211 53 104 72 197 72 345 0 252
-87 516 -197 598 -108 80 -217 98 -325 54z m71 -347 c53 -56 98 -239 85 -349
-13 -109 -86 -186 -177 -186 -75 0 -117 53 -139 174 -26 146 43 347 134 387
39 16 64 10 97 -26z"/>
<path d="M7900 1668 c-70 -49 -70 -46 -70 -498 0 -401 0 -406 23 -450 41 -81
35 -80 498 -80 405 0 406 0 439 22 18 13 43 36 54 51 21 28 21 38 21 450 0
421 0 422 -23 458 -42 69 -42 69 -500 69 -408 0 -409 0 -442 -22z"/>
<path d="M9040 1668 c-70 -49 -70 -46 -70 -498 0 -401 0 -406 23 -450 41 -81
35 -80 498 -80 405 0 406 0 439 22 18 13 43 36 54 51 21 28 21 38 21 450 0
421 0 422 -23 458 -42 69 -42 69 -500 69 -408 0 -409 0 -442 -22z"/>
</g>
</svg>
