<svg id="Layer_1" data-name="Layer 1" xmlns="http://www.w3.org/2000/svg" viewBox="0 0 453.79 148.7"><defs><style>.cls-1{fill:#2f2967;}.cls-2{fill:#90c33c;}</style></defs><path class="cls-1" d="M184.58,95.77a10.82,10.82,0,1,1-21.63,0V58.87H145v36.9a10.82,10.82,0,1,1-21.64,0V58.87h-18v36.9A28.8,28.8,0,0,0,154,116.67a28.8,28.8,0,0,0,48.63-20.9V58.87h-18Z" transform="translate(-23.96 -20.66)"/><rect class="cls-1" x="185.52" y="38.21" width="18" height="65.58"/><rect class="cls-1" x="185.84" y="0.12" width="18" height="17.43"/><path class="cls-1" d="M254.72,20.78h-18v86.31a17.52,17.52,0,0,0,17.5,17.5h9v-18h-8.47Z" transform="translate(-23.96 -20.66)"/><path class="cls-1" d="M307,59.66A32.5,32.5,0,0,0,292.63,63V20.66h-18V125.23h18v-3.57a32.66,32.66,0,1,0,14.33-62ZM307,107a14.69,14.69,0,0,1-14.33-11.56,14.73,14.73,0,0,1,0-6.2A14.66,14.66,0,1,1,307,107Z" transform="translate(-23.96 -20.66)"/><path class="cls-1" d="M378.67,59.66A32.42,32.42,0,0,0,364.35,63V20.66h-18V125.23h18v-3.57a32.65,32.65,0,1,0,14.32-62Zm0,47.32a14.67,14.67,0,0,1-14.32-11.56,14.3,14.3,0,0,1,0-6.2A14.66,14.66,0,1,1,378.67,107Z" transform="translate(-23.96 -20.66)"/><path class="cls-1" d="M459.75,60.21V96.16a11.48,11.48,0,0,1-23,0V60.21h-18V96.16a29.47,29.47,0,0,0,41,27.15v16.57a11.48,11.48,0,0,1-23,.29l-18,.43a29.48,29.48,0,0,0,58.95-.72V60.21Z" transform="translate(-23.96 -20.66)"/><path class="cls-2" d="M59,44.05c-19.31,0-35,15.14-35,33.75,0,8,5,17.58,15.3,29.12a163.52,163.52,0,0,0,13.87,13.73,9,9,0,0,0,11.71,0,160.22,160.22,0,0,0,13.87-13.73C89,95.38,94,85.85,94,77.8,94,59.19,78.3,44.05,59,44.05Zm0,57.56C50.08,92.85,41.94,82.4,41.94,77.8,41.94,69.1,49.59,62,59,62S76,69.1,76,77.8C76,82.4,67.89,92.85,59,101.61Z" transform="translate(-23.96 -20.66)"/></svg>